<?xml version="1.0" standalone="yes"?>
<svg xmlns="http://www.w3.org/2000/svg" width="512" height="512">
<path style="fill:#ffffff; stroke:none;" d="M0 0L0 512L512 512L512 0L0 0z"/>
<path style="fill:#010101; stroke:none;" d="M133 43.5178C122.085 45.8463 113.521 54.228 110.761 65C105.485 85.5913 110 112.733 110 134L110 357L110 418C110 427.802 108.38 438.982 112.996 448C124.432 470.339 155.37 464 176 464L312 464C332.064 464 357.569 468.218 377 463.239C411.091 454.504 400 399.269 400 373L400 149L400 89C400 78.8167 401.203 67.1913 395.895 58C383.425 36.407 352 43 331 43L198 43C177.56 43 152.978 39.2554 133 43.5178z"/>
<path style="fill:#ffffff; stroke:none;" d="M137.059 67.0278C132.56 69.4917 133.002 74.5956 133 79L133 108L133 232L133 379L133 420C133 424.912 131.598 432.505 134.028 436.941C136.79 441.984 143.159 441 148 441L188 441L322 441L358 441C362.44 441 368.828 442.124 372.775 439.682C376.704 437.251 376.945 432.124 376.996 428C377.123 417.67 377 407.331 377 397L377 269L377 124L377 86C377 80.7797 378.073 73.7779 374.91 69.2284C371.777 64.7208 364.751 66 360 66L320 66L189 66L153 66C148.331 66 141.283 64.7143 137.059 67.0278z"/>
<path style="fill:#010101; stroke:none;" d="M145.015 68.7029C129.724 74.0077 138.733 98.6734 153.999 92.848C169.643 86.8785 160.795 63.2287 145.015 68.7029M356.004 68.6528C340.215 73.6381 348.609 97.8734 363.996 93.0031C379.971 87.9466 371.827 63.6565 356.004 68.6528M246 82.4283C235.775 83.893 225.715 87.0574 217 92.6991C183.743 114.227 175.239 162.954 200.468 194C216.402 213.608 241.306 222.268 266 218.7C275.091 217.386 284.285 213.858 292 208.91C351.652 170.653 317.112 72.2409 246 82.4283z"/>
<path style="fill:#ffffff; stroke:none;" d="M250 105.428C241.879 106.589 234.773 108.806 228.001 113.57C188.933 141.049 216.067 202.319 262 195.7C318.559 187.55 306.328 97.3805 250 105.428z"/>
<path style="fill:#010101; stroke:none;" d="M55.0039 130.573C49.638 132.131 47.4013 137.527 44.8495 142C38.6847 152.805 33.3376 164.314 29.0532 176C10.8661 225.605 8.3544 282.565 25.0008 333C30.2466 348.894 36.6872 364.447 45.0008 379C48.9952 385.992 53.6487 393.304 62.9961 390.347C70.1125 388.097 71.2367 380.316 69.034 374C63.3871 357.809 52.745 343.776 47.8596 327C34.7419 281.956 33.3768 236.926 48.3549 192C53.7678 175.764 65.1597 161.122 69.8557 145C72.6751 135.321 64.4192 127.838 55.0039 130.573M249 130.529C223 136.54 233.224 177.378 259 171.471C286.187 165.24 276.252 124.23 249 130.529M445.015 130.742C439.119 133.065 437.645 140.499 439.508 146C445.211 162.842 456.127 177.763 461.656 195C475.664 238.675 475.14 285.523 460.645 329C455.276 345.105 444.819 359.163 439.507 375C436.372 384.345 443.111 392.888 452.996 390.606C458.867 389.25 461.269 383.779 463.999 379C470.058 368.395 474.909 357.328 479.399 346C499.203 296.042 500.282 236.896 483.333 186C478.132 170.381 471.777 155.29 463.579 141C459.599 134.063 454.129 127.151 445.015 130.742M81 168.643C67.8605 169.714 64.3184 190.948 61.0008 201C48.9241 237.59 50.013 277.04 59.3742 314C62.2835 325.486 67.8053 354.641 84 351.771C102.146 348.555 86.6114 323.452 83.8596 314C75.1002 283.915 72.6315 253.8 79.4244 223C82.3415 209.773 88.1879 197.868 91.9568 185C94.2785 177.073 90.6002 167.86 81 168.643M426 168.657C408.805 170.536 419.49 191.27 422.808 200C440.68 247.029 432.259 289.052 417.36 335C414.749 343.05 417.932 352.816 428 352.242C440.899 351.505 444.758 329.821 447.999 320C459.849 284.099 459.786 243.314 449.848 207C446.864 196.096 441.38 166.976 426 168.657M147 248.573C130.67 252.436 136.337 277.668 152.999 273.58C168.67 269.735 162.539 244.897 147 248.573M358 248.573C341.204 251.887 346.367 277.346 363 273.605C378.699 270.074 373.784 245.458 358 248.573M245 249.425C230.967 251.335 218.043 255.666 206 263.229C162.204 290.734 154.104 355.215 187.3 394C207.392 417.474 237.756 427.788 268 423.711C279.987 422.096 291.854 417.677 302 411.136C365.372 370.277 349.545 269.923 276 251.627C266.02 249.144 255.243 248.031 245 249.425z"/>
<path style="fill:#ffffff; stroke:none;" d="M247 272.428C237.325 273.814 228.326 276.886 220 282.066C160.769 318.91 197.819 410.406 265 400.7C273.809 399.427 282.599 395.875 290 390.995C344.701 354.929 313.724 262.869 247 272.428z"/>
<path style="fill:#010101; stroke:none;" d="M250 278.424C238.627 279.932 228.369 283.011 219 289.924C170.029 326.059 205.818 403.013 264 394.7C271.775 393.589 279.317 390.607 286 386.536C335.763 356.225 309.808 270.499 250 278.424z"/>
<path style="fill:#ffffff; stroke:none;" d="M252 292.44C244.156 293.316 236.61 295.305 230 299.749C191.757 325.459 214.609 385.703 260 380.826C315.42 374.872 306.954 286.302 252 292.44z"/>
<path style="fill:#010101; stroke:none;" d="M250 310.465C214.717 316.815 225.89 369.546 261 362.685C293.666 356.302 282.827 304.556 250 310.465M148 412.569C131.359 414.779 135.109 440.567 152 437.775C167.913 435.144 163.918 410.456 148 412.569M359 412.559C342.012 414.578 345.117 439.847 362 437.863C377.928 435.991 375.073 410.648 359 412.559z"/>
</svg>
