<?xml version="1.0" standalone="yes"?>
<svg xmlns="http://www.w3.org/2000/svg" width="512" height="512">
<path style="fill:#ffffff; stroke:none;" d="M0 0L0 512L219 512L219 511C200.575 501.361 211.874 467.472 213.845 451C220.84 392.541 232.475 332.798 235 274L163 274C150.345 274 137.786 274.023 130.133 261.999C120.513 246.884 130.557 221.442 132.87 205C139.961 154.572 148.774 104.243 157.08 54C160.156 35.3951 160.22 5.29169 184 1L166 0L129 0L0 0z"/>
<path style="fill:#010103; stroke:none;" d="M235 274C230.344 332.993 221.346 392.306 213.718 451C211.891 465.065 208.954 479.813 209.001 494C209.023 500.643 210.56 507.228 217.015 510.543C224.973 514.63 234.196 510.958 238.895 503.996C251.921 484.699 261.325 460.844 271.753 440C301.806 379.933 332.21 320.074 362.247 260C370.185 244.124 395.025 212.957 382.347 195.015C375.823 185.781 366.1 186 356 186L302 186C317.628 148.463 340.138 111.581 359.861 76C368.461 60.4861 384.148 39.9441 385.671 22C387.709 -2.00757 360.874 0 345 0L229 0C214.103 0 191.656 -4.16187 178 2.40277C159.057 11.5089 159.687 37.0567 156.754 55C148.589 104.952 140.105 154.926 132.728 205C130.201 222.156 119.422 249.841 131.532 264.96C139.47 274.869 151.61 274 163 274L235 274z"/>
<path style="fill:#ffffff; stroke:none;" d="M370 0L370 1C396.777 8.95328 380.758 35.47 372.742 51C358.045 79.4701 342.934 107.817 327.691 136C319.191 151.717 306.948 168.823 302 186L356 186C366.968 186 377.838 186.866 383.547 198C388.01 206.705 384.202 215.949 380.244 224C372.156 240.45 363.449 256.597 355.247 273C325.557 332.38 296.888 392.611 265.309 451C258.223 464.101 251.908 477.678 245.247 491C241.363 498.768 238.061 506.807 230 511L230 512L512 512L512 0L370 0M156 245L223 245C234.726 245 246.338 243.507 255.907 251.67C269.953 263.652 263.572 285.262 261.424 301C256.036 340.467 247.821 382.202 247 422L248 422C277.619 350.857 322.398 286.102 352 215L300 215C290.491 215 280.331 215.329 273.188 207.895C258.822 192.943 275.69 170.99 283.576 157C297.825 131.719 310.503 105.526 324.309 80C333.349 63.2847 343.692 46.5521 351 29L233 29L203 29L191.742 30.0278L188.13 45L181.92 84L156 245z"/>
</svg>
