<?xml version="1.0" standalone="yes"?>
<svg xmlns="http://www.w3.org/2000/svg" width="512" height="512">
<path style="fill:#ffffff; stroke:none;" d="M0 0L0 257L1 257L11.1157 218L30 148C45.9984 154.036 66.9619 160.608 84 162C86.7706 148.577 90.754 135.207 94.4244 122C95.4929 118.155 96.1323 110.292 99.5131 107.777C103.642 104.705 115.5 110.174 120 111.424C139.285 116.785 158.733 121.573 178 127L178 58L118 58L118 28L329 28L329 58L269 58L269 125L270.028 150.436L282 154.71L317 164L371 178.29L399 184.736L422 172.603L468 146C470.296 152.308 482.972 166.093 481.323 172.471C479.847 178.182 462.94 184.466 458 187.281C445.674 194.304 424.939 201.797 415.703 212.529C411.302 217.643 409.537 229.425 409 236L511 202C508.116 223.419 499.802 245.135 494.151 266C482.683 308.345 471.325 350.732 459.576 393C453.647 414.328 443.801 437.946 442 460L392.155 404L370 380L364.508 403L375.15 423L403 472C396.256 474.134 383.958 486.209 377.104 484.474C372.017 483.186 368.108 472.193 365.719 468C358.853 455.95 351.755 444.028 344.85 432C341.721 426.548 339.325 419.488 332.96 417.309C278.869 398.796 221.201 387.781 166 372.849C139.368 365.644 112.581 358.963 86 351.576C70.0501 347.143 53.4134 341.21 37 339L52 279L0 266L0 512L512 512L512 0L0 0z"/>
<path style="fill:#010101; stroke:none;" d="M118 28L118 58L178 58L178 127L120 111.151L99.5131 107.118L94.4244 121L84 162L30 148C20.8497 169.268 17.0083 194.589 11.1157 217C6.94806 232.851 0.0109248 249.504 0 266L52 279L37 339C90.0725 349.954 142.684 366.697 195 380.849C240.361 393.119 287.424 402.416 331.985 417.309C338.62 419.527 341.041 426.315 344.281 432C351.147 444.05 358.245 455.972 365.15 468C367.594 472.258 371.789 484.093 377.104 485.122C384.053 486.467 396.714 474.935 403 472C397.81 454.356 383.721 436.946 374.579 421C371.466 415.571 365.349 408.323 364.718 402C364.062 395.416 368.21 386.353 370 380L417.718 434L442 460L459.849 393L494.424 266L511 202C476.962 209.875 441.598 223.425 409 236C409.884 229.44 411.484 218.573 415.703 213.329C424.468 202.432 445.862 194.817 458 187.85C463.404 184.748 479.596 178.95 481.579 172.79C483.571 166.599 470.943 151.588 468 146L421 172.603L399 184.492L374 178.849L317 163.71L282 154.424L270.028 149.697L269 124L269 58L329 58L329 28L118 28z"/>
<path style="fill:#ffffff; stroke:none;" d="M209 58L209 210C218.743 207.262 228.258 207.262 238 210L238 58L209 58M75 317L147 335.849L336 386L365.884 275L382 213L308 193.576L269 184L269 236C269 248.396 269.963 260.422 264.688 272C251.474 301 211.241 306.845 190.3 282.985C170.39 260.3 178 220.011 178 192C178 184.784 181.439 165.471 176.972 159.728C174.764 156.889 168.289 156.339 165 155.424C154.702 152.562 144.365 149.734 134 147.127C130.747 146.308 123.708 142.904 120.854 145.643C118.11 148.278 117.801 154.479 116.849 158L108.151 190C100.856 216.968 94.0561 244.083 86.5756 271C82.4682 285.78 76.251 301.684 75 317M52 186C46.8639 199.418 43.9471 214.09 40.3704 228C39.4474 231.59 35.7406 238.973 38.0671 242.436C40.4148 245.93 58.0461 250.421 60.6968 246.667C63.5081 242.686 63.9677 235.659 65.2901 231C68.8299 218.528 73.9439 204.93 75 192L52 186M223 238.757C204.243 239.829 206.27 268.282 225 266.902C242.962 265.578 241.092 237.723 223 238.757M427 396L455.884 289L466 250C450.103 253.678 434.481 260.173 419 265.333C413.413 267.196 403.833 268.496 399.564 272.702C393.925 278.258 392.58 294.413 390.63 302C387.77 313.121 379.035 330.629 380.502 342C381.215 347.526 388.236 352.996 391.718 357C402.666 369.588 413.572 386.117 427 396z"/>
</svg>
