<?xml version="1.0" encoding="UTF-8" standalone="no"?>
<!DOCTYPE svg PUBLIC "-//W3C//DTD SVG 1.1//EN" "http://www.w3.org/Graphics/SVG/1.1/DTD/svg11.dtd">
<svg xmlns="http://www.w3.org/2000/svg" version="1.1" viewBox="0.00 0.00 677.00 443.00">
<g stroke-width="2.00" fill="none" stroke-linecap="butt">
<path stroke="#7f7f7e" vector-effect="non-scaling-stroke" d="
  M 190.75 217.04
  C 161.39 209.33 132.96 208.57 106.08 214.37
  C 78.23 220.37 36.62 239.80 38.87 274.78
  C 41.09 309.22 83.60 327.35 112.06 332.21
  C 124.18 334.28 138.63 334.98 149.75 334.78
  Q 150.27 334.77 150.27 335.29
  Q 150.28 367.99 150.03 400.69
  C 150.01 403.77 145.09 403.51 143.03 403.61
  Q 142.42 403.64 142.50 404.24
  C 142.57 404.73 143.01 404.89 143.49 404.91
  C 147.79 405.09 175.64 405.95 175.47 404.35
  Q 175.42 403.83 174.90 403.74
  C 172.95 403.41 168.43 403.74 168.34 400.69
  C 167.92 385.16 168.36 360.55 168.24 333.96
  Q 168.24 333.39 168.80 333.29
  C 180.25 331.20 190.05 329.95 198.33 323.57"
/>
<path stroke="#805000" vector-effect="non-scaling-stroke" d="
  M 198.33 323.57
  Q 210.05 315.79 221.66 307.90
  Q 430.09 166.19 638.53 24.49
  C 642.63 21.71 652.18 17.05 653.65 11.72
  Q 653.79 11.22 653.32 10.99
  C 651.05 9.89 644.51 12.87 642.21 13.96
  C 619.17 24.90 597.90 33.25 572.51 45.42
  Q 562.56 50.20 554.40 53.91
  Q 424.85 112.95 295.35 172.10
  Q 287.48 175.70 277.29 180.71
  C 252.40 192.97 226.95 204.22 201.55 215.40
  C 197.77 217.06 194.74 216.90 190.75 217.04"
/>
<path stroke="#ffcf7e" vector-effect="non-scaling-stroke" d="
  M 198.33 323.57
  Q 183.53 325.09 168.74 324.35
  Q 168.32 324.33 168.32 323.91
  L 168.35 288.45
  Q 168.35 288.00 168.80 288.00
  L 231.83 288.00
  A 0.80 0.80 0.0 0 0 232.29 286.55
  C 227.79 283.42 222.26 280.87 218.10 277.23
  C 212.42 272.26 211.02 271.20 203.12 270.93
  C 176.54 270.02 157.55 269.85 134.84 271.38
  A 0.52 0.51 -24.6 0 0 134.51 272.26
  L 149.87 287.43
  Q 150.23 287.79 150.23 288.29
  L 150.30 320.77
  Q 150.30 321.18 149.89 321.13
  C 136.10 319.55 126.07 314.63 111.93 308.10
  C 98.01 301.67 86.15 289.28 84.64 273.46
  C 84.19 268.74 84.94 264.08 86.91 259.92
  C 101.83 228.36 154.11 218.35 184.75 219.53
  Q 187.69 219.65 190.75 217.04"
/>
<path stroke="#7f7f7e" vector-effect="non-scaling-stroke" d="
  M 503.58 308.90
  L 503.25 298.78
  A 0.37 0.37 0.0 0 0 502.60 298.56
  Q 494.05 309.19 480.71 312.50
  Q 480.10 312.65 480.28 313.25
  C 480.83 315.05 485.86 314.56 487.33 314.44
  Q 488.49 314.34 488.50 315.51
  C 488.51 319.54 487.58 328.27 489.56 331.50
  C 494.64 339.75 521.58 337.97 514.26 324.56
  Q 513.49 323.17 511.94 323.11
  Q 511.35 323.09 511.31 323.68
  C 511.09 326.75 511.51 329.76 507.50 330.20
  Q 503.71 330.62 503.52 327.25
  Q 503.19 321.15 503.59 314.99
  Q 503.62 314.49 504.13 314.50
  C 508.35 314.63 511.36 314.73 513.10 310.20
  Q 513.34 309.58 512.68 309.57
  L 504.15 309.47
  Q 503.59 309.46 503.58 308.90"
/>
<path stroke="#7f7f7e" vector-effect="non-scaling-stroke" d="
  M 269.4291 322.9869
  A 24.85 13.90 0.5 0 0 244.7013 308.8705
  A 24.85 13.90 0.5 0 0 219.7309 322.5531
  A 24.85 13.90 0.5 0 0 244.4587 336.6695
  A 24.85 13.90 0.5 0 0 269.4291 322.9869"
/>
<path stroke="#7f7f7e" vector-effect="non-scaling-stroke" d="
  M 366.73 316.19
  L 367.30 319.82
  Q 367.40 320.41 367.99 320.45
  Q 370.92 320.66 373.80 320.34
  C 377.66 319.92 379.23 315.96 376.47 313.52
  C 369.59 307.44 355.42 308.10 347.32 310.55
  C 341.46 312.31 333.49 317.21 334.32 324.22
  C 335.81 336.63 360.17 337.68 368.32 335.63
  C 373.85 334.24 381.74 330.22 377.00 323.44
  Q 376.55 322.81 376.30 323.54
  C 373.94 330.15 368.44 331.02 362.19 331.09
  C 341.52 331.30 350.63 306.09 366.13 315.30
  Q 366.64 315.60 366.73 316.19"
/>
<path stroke="#7f7f7e" vector-effect="non-scaling-stroke" d="
  M 398.17 324.04
  L 424.87 323.98
  Q 425.57 323.98 425.65 323.29
  Q 425.78 322.27 425.10 320.85
  Q 420.76 311.74 411.98 309.54
  C 403.77 307.48 389.27 309.06 383.60 316.84
  C 377.12 325.73 385.71 332.74 393.59 334.91
  C 401.33 337.05 423.59 339.23 426.45 328.23
  A 0.61 0.61 0.0 0 0 425.59 327.54
  Q 414.36 333.17 402.16 330.09
  Q 398.08 329.06 397.56 324.73
  Q 397.48 324.04 398.17 324.04"
/>
<path stroke="#7f7f7e" vector-effect="non-scaling-stroke" d="
  M 567.7386 323.0201
  A 24.84 13.90 0.6 0 0 543.0456 308.8608
  A 24.84 13.90 0.6 0 0 518.0614 322.4999
  A 24.84 13.90 0.6 0 0 542.7544 336.6592
  A 24.84 13.90 0.6 0 0 567.7386 323.0201"
/>
<path stroke="#7f7f7e" vector-effect="non-scaling-stroke" d="
  M 295.42 315.44
  L 295.17 310.32
  A 0.83 0.82 -1.8 0 0 294.32 309.53
  L 272.06 310.10
  A 0.28 0.28 0.0 0 0 271.91 310.61
  L 280.50 316.16
  Q 280.98 316.47 280.98 317.05
  L 281.01 328.41
  Q 281.01 328.91 280.59 329.18
  L 272.13 334.68
  Q 271.24 335.25 272.30 335.25
  L 300.96 335.25
  Q 301.91 335.25 301.21 334.61
  L 296.61 330.47
  Q 296.25 330.14 296.17 329.65
  C 295.28 323.85 295.51 316.98 302.67 316.00
  C 311.62 314.78 309.47 324.26 309.52 329.53
  Q 309.52 330.08 309.11 330.44
  L 304.23 334.63
  A 0.34 0.33 24.9 0 0 304.45 335.22
  L 333.36 335.32
  Q 334.25 335.32 333.50 334.84
  L 324.83 329.22
  Q 324.43 328.96 324.45 328.48
  C 324.74 317.44 325.80 310.55 313.44 309.20
  C 306.54 308.44 299.96 309.37 296.08 315.61
  Q 295.48 316.58 295.42 315.44"
/>
<path stroke="#7f7f7e" vector-effect="non-scaling-stroke" d="
  M 450.07 313.07
  L 449.73 310.07
  Q 449.67 309.48 449.07 309.49
  L 425.97 310.17
  Q 425.01 310.20 425.82 310.72
  L 433.50 315.62
  A 2.69 2.68 -73.9 0 1 434.75 317.89
  L 434.75 339.54
  A 1.69 1.68 74.7 0 1 433.93 340.99
  L 425.82 345.84
  Q 425.14 346.25 425.91 346.40
  Q 427.50 346.71 429.51 346.72
  Q 446.70 346.83 460.23 346.39
  Q 461.12 346.37 460.33 345.95
  L 450.18 340.71
  Q 449.70 340.47 449.71 339.92
  L 449.84 331.53
  Q 449.86 330.64 450.40 331.34
  C 459.62 343.30 488.05 332.24 478.94 317.56
  C 473.25 308.39 458.82 306.16 450.66 313.30
  Q 450.15 313.75 450.07 313.07"
/>
<path stroke="#7f7f7e" vector-effect="non-scaling-stroke" d="
  M 243.4099 372.1996
  A 7.72 4.97 -0.3 0 0 235.6640 367.2701
  A 7.72 4.97 -0.3 0 0 227.9701 372.2804
  A 7.72 4.97 -0.3 0 0 235.7160 377.2099
  A 7.72 4.97 -0.3 0 0 243.4099 372.1996"
/>
<path stroke="#7f7f7e" vector-effect="non-scaling-stroke" d="
  M 369.18 378.65
  L 368.93 368.45
  A 0.44 0.44 0.0 0 0 368.14 368.19
  Q 360.00 378.55 347.04 381.80
  Q 345.72 382.13 346.07 383.36
  Q 346.23 383.89 346.78 383.92
  L 353.69 384.27
  Q 354.17 384.30 354.18 384.78
  C 354.39 392.89 351.64 402.72 360.76 404.99
  C 367.13 406.57 380.31 407.77 380.81 398.07
  Q 381.05 393.48 377.04 392.59
  Q 376.25 392.41 376.48 393.19
  C 377.96 398.25 373.05 402.79 369.51 398.77
  Q 369.16 398.37 369.15 397.84
  L 368.94 385.10
  Q 368.91 383.67 370.30 383.99
  Q 376.84 385.50 378.71 379.54
  Q 378.91 378.92 378.26 378.95
  L 369.90 379.32
  Q 369.20 379.35 369.18 378.65"
/>
<path stroke="#7f7f7e" vector-effect="non-scaling-stroke" d="
  M 269.43 394.32
  A 0.38 0.37 -9.7 0 1 269.78 393.83
  L 297.21 393.49
  Q 298.28 393.48 297.95 392.47
  Q 294.34 381.28 283.25 379.03
  C 274.15 377.18 259.89 378.96 254.90 387.93
  Q 251.48 394.07 257.01 399.91
  C 263.54 406.80 279.06 407.02 287.75 405.49
  C 291.85 404.77 298.88 402.43 298.19 397.31
  Q 298.13 396.87 297.75 397.09
  C 290.39 401.25 272.70 404.27 269.43 394.32"
/>
<path stroke="#7f7f7e" vector-effect="non-scaling-stroke" d="
  M 334.98 399.28
  A 0.86 0.86 0.0 0 1 334.79 400.75
  C 326.27 404.31 311.50 398.98 303.95 394.85
  A 0.47 0.47 0.0 0 0 303.25 395.26
  L 303.25 405.28
  Q 303.25 406.15 304.06 405.82
  L 310.32 403.26
  Q 310.79 403.07 311.27 403.23
  C 318.73 405.63 336.23 408.35 342.79 403.15
  C 347.72 399.24 345.55 392.94 340.44 390.30
  C 332.99 386.45 322.58 386.79 314.22 386.73
  Q 311.43 386.70 313.35 384.67
  Q 314.22 383.75 315.58 383.63
  Q 329.26 382.40 341.69 388.30
  Q 342.25 388.57 342.25 387.94
  L 342.24 379.86
  Q 342.24 379.09 341.50 379.31
  L 335.73 381.04
  Q 335.19 381.20 334.65 381.03
  C 327.35 378.68 308.97 375.90 303.58 383.32
  Q 301.44 386.27 302.63 389.68
  C 305.51 397.94 323.79 398.57 331.19 398.27
  Q 333.52 398.17 334.98 399.28"
/>
<path stroke="#7f7f7e" vector-effect="non-scaling-stroke" d="
  M 413.24 401.43
  Q 414.91 404.23 417.22 405.03
  C 421.06 406.38 431.33 407.02 433.87 402.50
  C 435.01 400.47 435.07 396.18 431.75 395.98
  Q 431.00 395.94 431.00 396.69
  L 431.00 399.49
  Q 431.00 400.05 430.53 400.36
  Q 429.03 401.35 427.56 400.21
  Q 427.20 399.93 427.17 399.46
  C 426.73 391.66 430.08 381.21 418.73 379.56
  C 408.59 378.08 397.64 377.74 388.79 381.82
  C 386.69 382.79 383.49 385.94 385.41 388.36
  C 387.09 390.47 394.69 389.82 397.35 389.56
  A 1.56 1.55 87.2 0 0 398.75 388.01
  L 398.75 385.84
  Q 398.75 385.26 399.29 385.03
  C 402.83 383.50 411.73 381.94 412.25 387.65
  Q 412.36 388.91 411.12 389.11
  C 404.55 390.21 386.95 390.77 384.29 397.60
  C 382.65 401.83 386.04 404.70 389.96 405.34
  C 397.79 406.62 406.36 406.85 412.44 401.31
  Q 412.91 400.88 413.24 401.43"
/>
<path stroke="#7f7f7e" vector-effect="non-scaling-stroke" d="
  M 243.73 398.64
  A 0.30 0.30 0.0 0 1 243.59 398.39
  L 243.46 379.29
  A 0.30 0.30 0.0 0 0 243.15 378.99
  L 219.85 379.83
  A 0.30 0.30 0.0 0 0 219.69 380.38
  L 228.61 386.18
  A 0.30 0.30 0.0 0 1 228.75 386.43
  L 228.75 398.33
  A 0.30 0.30 0.0 0 1 228.61 398.58
  L 219.42 404.46
  A 0.30 0.30 0.0 0 0 219.58 405.01
  L 252.53 404.85
  A 0.30 0.30 0.0 0 0 252.69 404.30
  L 243.73 398.64"
/>
<path stroke="#7f7f7e" vector-effect="non-scaling-stroke" d="
  M 253.1251 321.2601
  A 7.22 7.22 0.0 0 0 245.8800 314.0654
  L 243.2000 314.0747
  A 7.22 7.22 0.0 0 0 236.0052 321.3199
  L 236.0149 324.0799
  A 7.22 7.22 0.0 0 0 243.2600 331.2746
  L 245.9400 331.2653
  A 7.22 7.22 0.0 0 0 253.1348 324.0201
  L 253.1251 321.2601"
/>
<path stroke="#7f7f7e" vector-effect="non-scaling-stroke" d="
  M 398.01 319.54
  L 413.11 319.44
  A 0.17 0.17 0.0 0 0 413.28 319.27
  L 413.28 319.19
  A 7.30 5.75 -0.4 0 0 405.94 313.49
  L 405.10 313.49
  A 7.30 5.75 -0.4 0 0 397.84 319.29
  L 397.84 319.37
  A 0.17 0.17 0.0 0 0 398.01 319.54"
/>
<path stroke="#7f7f7e" vector-effect="non-scaling-stroke" d="
  M 551.4413 321.4647
  A 7.37 7.37 0.0 0 0 544.1359 314.0307
  L 541.7560 314.0099
  A 7.37 7.37 0.0 0 0 534.3219 321.3154
  L 534.2987 323.9753
  A 7.37 7.37 0.0 0 0 541.6041 331.4093
  L 543.9840 331.4301
  A 7.37 7.37 0.0 0 0 551.4181 324.1246
  L 551.4413 321.4647"
/>
<path stroke="#7f7f7e" vector-effect="non-scaling-stroke" d="
  M 457.9909 330.7968
  A 8.27 7.08 88.4 0 0 464.8372 322.3323
  A 8.27 7.08 88.4 0 0 457.5291 314.2632
  A 8.27 7.08 88.4 0 0 450.6828 322.7277
  A 8.27 7.08 88.4 0 0 457.9909 330.7968"
/>
<path stroke="#7f7f7e" vector-effect="non-scaling-stroke" d="
  M 269.99 389.05
  L 285.11 388.95
  A 0.14 0.14 0.0 0 0 285.25 388.81
  L 285.25 388.74
  A 7.55 5.71 -0.4 0 0 277.66 383.08
  L 277.36 383.08
  A 7.55 5.71 -0.4 0 0 269.85 388.84
  L 269.85 388.91
  A 0.14 0.14 0.0 0 0 269.99 389.05"
/>
<path stroke="#7f7f7e" vector-effect="non-scaling-stroke" d="
  M 410.54 393.20
  L 399.51 395.54
  A 1.13 1.13 0.0 0 0 398.64 396.88
  L 398.78 397.55
  A 5.56 4.51 -12.0 0 0 405.15 400.80
  L 407.52 400.30
  A 5.56 4.51 -12.0 0 0 412.02 394.73
  L 411.88 394.07
  A 1.13 1.13 0.0 0 0 410.54 393.20"
/>
</g>
<path fill="#000000" d="
  M 0.00 0.00
  L 677.00 0.00
  L 677.00 443.00
  L 0.00 443.00
  L 0.00 0.00
  Z
  M 190.75 217.04
  C 161.39 209.33 132.96 208.57 106.08 214.37
  C 78.23 220.37 36.62 239.80 38.87 274.78
  C 41.09 309.22 83.60 327.35 112.06 332.21
  C 124.18 334.28 138.63 334.98 149.75 334.78
  Q 150.27 334.77 150.27 335.29
  Q 150.28 367.99 150.03 400.69
  C 150.01 403.77 145.09 403.51 143.03 403.61
  Q 142.42 403.64 142.50 404.24
  C 142.57 404.73 143.01 404.89 143.49 404.91
  C 147.79 405.09 175.64 405.95 175.47 404.35
  Q 175.42 403.83 174.90 403.74
  C 172.95 403.41 168.43 403.74 168.34 400.69
  C 167.92 385.16 168.36 360.55 168.24 333.96
  Q 168.24 333.39 168.80 333.29
  C 180.25 331.20 190.05 329.95 198.33 323.57
  Q 210.05 315.79 221.66 307.90
  Q 430.09 166.19 638.53 24.49
  C 642.63 21.71 652.18 17.05 653.65 11.72
  Q 653.79 11.22 653.32 10.99
  C 651.05 9.89 644.51 12.87 642.21 13.96
  C 619.17 24.90 597.90 33.25 572.51 45.42
  Q 562.56 50.20 554.40 53.91
  Q 424.85 112.95 295.35 172.10
  Q 287.48 175.70 277.29 180.71
  C 252.40 192.97 226.95 204.22 201.55 215.40
  C 197.77 217.06 194.74 216.90 190.75 217.04
  Z
  M 503.58 308.90
  L 503.25 298.78
  A 0.37 0.37 0.0 0 0 502.60 298.56
  Q 494.05 309.19 480.71 312.50
  Q 480.10 312.65 480.28 313.25
  C 480.83 315.05 485.86 314.56 487.33 314.44
  Q 488.49 314.34 488.50 315.51
  C 488.51 319.54 487.58 328.27 489.56 331.50
  C 494.64 339.75 521.58 337.97 514.26 324.56
  Q 513.49 323.17 511.94 323.11
  Q 511.35 323.09 511.31 323.68
  C 511.09 326.75 511.51 329.76 507.50 330.20
  Q 503.71 330.62 503.52 327.25
  Q 503.19 321.15 503.59 314.99
  Q 503.62 314.49 504.13 314.50
  C 508.35 314.63 511.36 314.73 513.10 310.20
  Q 513.34 309.58 512.68 309.57
  L 504.15 309.47
  Q 503.59 309.46 503.58 308.90
  Z
  M 269.4291 322.9869
  A 24.85 13.90 0.5 0 0 244.7013 308.8705
  A 24.85 13.90 0.5 0 0 219.7309 322.5531
  A 24.85 13.90 0.5 0 0 244.4587 336.6695
  A 24.85 13.90 0.5 0 0 269.4291 322.9869
  Z
  M 366.73 316.19
  L 367.30 319.82
  Q 367.40 320.41 367.99 320.45
  Q 370.92 320.66 373.80 320.34
  C 377.66 319.92 379.23 315.96 376.47 313.52
  C 369.59 307.44 355.42 308.10 347.32 310.55
  C 341.46 312.31 333.49 317.21 334.32 324.22
  C 335.81 336.63 360.17 337.68 368.32 335.63
  C 373.85 334.24 381.74 330.22 377.00 323.44
  Q 376.55 322.81 376.30 323.54
  C 373.94 330.15 368.44 331.02 362.19 331.09
  C 341.52 331.30 350.63 306.09 366.13 315.30
  Q 366.64 315.60 366.73 316.19
  Z
  M 398.17 324.04
  L 424.87 323.98
  Q 425.57 323.98 425.65 323.29
  Q 425.78 322.27 425.10 320.85
  Q 420.76 311.74 411.98 309.54
  C 403.77 307.48 389.27 309.06 383.60 316.84
  C 377.12 325.73 385.71 332.74 393.59 334.91
  C 401.33 337.05 423.59 339.23 426.45 328.23
  A 0.61 0.61 0.0 0 0 425.59 327.54
  Q 414.36 333.17 402.16 330.09
  Q 398.08 329.06 397.56 324.73
  Q 397.48 324.04 398.17 324.04
  Z
  M 567.7386 323.0201
  A 24.84 13.90 0.6 0 0 543.0456 308.8608
  A 24.84 13.90 0.6 0 0 518.0614 322.4999
  A 24.84 13.90 0.6 0 0 542.7544 336.6592
  A 24.84 13.90 0.6 0 0 567.7386 323.0201
  Z
  M 295.42 315.44
  L 295.17 310.32
  A 0.83 0.82 -1.8 0 0 294.32 309.53
  L 272.06 310.10
  A 0.28 0.28 0.0 0 0 271.91 310.61
  L 280.50 316.16
  Q 280.98 316.47 280.98 317.05
  L 281.01 328.41
  Q 281.01 328.91 280.59 329.18
  L 272.13 334.68
  Q 271.24 335.25 272.30 335.25
  L 300.96 335.25
  Q 301.91 335.25 301.21 334.61
  L 296.61 330.47
  Q 296.25 330.14 296.17 329.65
  C 295.28 323.85 295.51 316.98 302.67 316.00
  C 311.62 314.78 309.47 324.26 309.52 329.53
  Q 309.52 330.08 309.11 330.44
  L 304.23 334.63
  A 0.34 0.33 24.9 0 0 304.45 335.22
  L 333.36 335.32
  Q 334.25 335.32 333.50 334.84
  L 324.83 329.22
  Q 324.43 328.96 324.45 328.48
  C 324.74 317.44 325.80 310.55 313.44 309.20
  C 306.54 308.44 299.96 309.37 296.08 315.61
  Q 295.48 316.58 295.42 315.44
  Z
  M 450.07 313.07
  L 449.73 310.07
  Q 449.67 309.48 449.07 309.49
  L 425.97 310.17
  Q 425.01 310.20 425.82 310.72
  L 433.50 315.62
  A 2.69 2.68 -73.9 0 1 434.75 317.89
  L 434.75 339.54
  A 1.69 1.68 74.7 0 1 433.93 340.99
  L 425.82 345.84
  Q 425.14 346.25 425.91 346.40
  Q 427.50 346.71 429.51 346.72
  Q 446.70 346.83 460.23 346.39
  Q 461.12 346.37 460.33 345.95
  L 450.18 340.71
  Q 449.70 340.47 449.71 339.92
  L 449.84 331.53
  Q 449.86 330.64 450.40 331.34
  C 459.62 343.30 488.05 332.24 478.94 317.56
  C 473.25 308.39 458.82 306.16 450.66 313.30
  Q 450.15 313.75 450.07 313.07
  Z
  M 243.4099 372.1996
  A 7.72 4.97 -0.3 0 0 235.6640 367.2701
  A 7.72 4.97 -0.3 0 0 227.9701 372.2804
  A 7.72 4.97 -0.3 0 0 235.7160 377.2099
  A 7.72 4.97 -0.3 0 0 243.4099 372.1996
  Z
  M 369.18 378.65
  L 368.93 368.45
  A 0.44 0.44 0.0 0 0 368.14 368.19
  Q 360.00 378.55 347.04 381.80
  Q 345.72 382.13 346.07 383.36
  Q 346.23 383.89 346.78 383.92
  L 353.69 384.27
  Q 354.17 384.30 354.18 384.78
  C 354.39 392.89 351.64 402.72 360.76 404.99
  C 367.13 406.57 380.31 407.77 380.81 398.07
  Q 381.05 393.48 377.04 392.59
  Q 376.25 392.41 376.48 393.19
  C 377.96 398.25 373.05 402.79 369.51 398.77
  Q 369.16 398.37 369.15 397.84
  L 368.94 385.10
  Q 368.91 383.67 370.30 383.99
  Q 376.84 385.50 378.71 379.54
  Q 378.91 378.92 378.26 378.95
  L 369.90 379.32
  Q 369.20 379.35 369.18 378.65
  Z
  M 269.43 394.32
  A 0.38 0.37 -9.7 0 1 269.78 393.83
  L 297.21 393.49
  Q 298.28 393.48 297.95 392.47
  Q 294.34 381.28 283.25 379.03
  C 274.15 377.18 259.89 378.96 254.90 387.93
  Q 251.48 394.07 257.01 399.91
  C 263.54 406.80 279.06 407.02 287.75 405.49
  C 291.85 404.77 298.88 402.43 298.19 397.31
  Q 298.13 396.87 297.75 397.09
  C 290.39 401.25 272.70 404.27 269.43 394.32
  Z
  M 334.98 399.28
  A 0.86 0.86 0.0 0 1 334.79 400.75
  C 326.27 404.31 311.50 398.98 303.95 394.85
  A 0.47 0.47 0.0 0 0 303.25 395.26
  L 303.25 405.28
  Q 303.25 406.15 304.06 405.82
  L 310.32 403.26
  Q 310.79 403.07 311.27 403.23
  C 318.73 405.63 336.23 408.35 342.79 403.15
  C 347.72 399.24 345.55 392.94 340.44 390.30
  C 332.99 386.45 322.58 386.79 314.22 386.73
  Q 311.43 386.70 313.35 384.67
  Q 314.22 383.75 315.58 383.63
  Q 329.26 382.40 341.69 388.30
  Q 342.25 388.57 342.25 387.94
  L 342.24 379.86
  Q 342.24 379.09 341.50 379.31
  L 335.73 381.04
  Q 335.19 381.20 334.65 381.03
  C 327.35 378.68 308.97 375.90 303.58 383.32
  Q 301.44 386.27 302.63 389.68
  C 305.51 397.94 323.79 398.57 331.19 398.27
  Q 333.52 398.17 334.98 399.28
  Z
  M 413.24 401.43
  Q 414.91 404.23 417.22 405.03
  C 421.06 406.38 431.33 407.02 433.87 402.50
  C 435.01 400.47 435.07 396.18 431.75 395.98
  Q 431.00 395.94 431.00 396.69
  L 431.00 399.49
  Q 431.00 400.05 430.53 400.36
  Q 429.03 401.35 427.56 400.21
  Q 427.20 399.93 427.17 399.46
  C 426.73 391.66 430.08 381.21 418.73 379.56
  C 408.59 378.08 397.64 377.74 388.79 381.82
  C 386.69 382.79 383.49 385.94 385.41 388.36
  C 387.09 390.47 394.69 389.82 397.35 389.56
  A 1.56 1.55 87.2 0 0 398.75 388.01
  L 398.75 385.84
  Q 398.75 385.26 399.29 385.03
  C 402.83 383.50 411.73 381.94 412.25 387.65
  Q 412.36 388.91 411.12 389.11
  C 404.55 390.21 386.95 390.77 384.29 397.60
  C 382.65 401.83 386.04 404.70 389.96 405.34
  C 397.79 406.62 406.36 406.85 412.44 401.31
  Q 412.91 400.88 413.24 401.43
  Z
  M 243.73 398.64
  A 0.30 0.30 0.0 0 1 243.59 398.39
  L 243.46 379.29
  A 0.30 0.30 0.0 0 0 243.15 378.99
  L 219.85 379.83
  A 0.30 0.30 0.0 0 0 219.69 380.38
  L 228.61 386.18
  A 0.30 0.30 0.0 0 1 228.75 386.43
  L 228.75 398.33
  A 0.30 0.30 0.0 0 1 228.61 398.58
  L 219.42 404.46
  A 0.30 0.30 0.0 0 0 219.58 405.01
  L 252.53 404.85
  A 0.30 0.30 0.0 0 0 252.69 404.30
  L 243.73 398.64
  Z"
/>
<path fill="#ff9f00" d="
  M 198.33 323.57
  Q 183.53 325.09 168.74 324.35
  Q 168.32 324.33 168.32 323.91
  L 168.35 288.45
  Q 168.35 288.00 168.80 288.00
  L 231.83 288.00
  A 0.80 0.80 0.0 0 0 232.29 286.55
  C 227.79 283.42 222.26 280.87 218.10 277.23
  C 212.42 272.26 211.02 271.20 203.12 270.93
  C 176.54 270.02 157.55 269.85 134.84 271.38
  A 0.52 0.51 -24.6 0 0 134.51 272.26
  L 149.87 287.43
  Q 150.23 287.79 150.23 288.29
  L 150.30 320.77
  Q 150.30 321.18 149.89 321.13
  C 136.10 319.55 126.07 314.63 111.93 308.10
  C 98.01 301.67 86.15 289.28 84.64 273.46
  C 84.19 268.74 84.94 264.08 86.91 259.92
  C 101.83 228.36 154.11 218.35 184.75 219.53
  Q 187.69 219.65 190.75 217.04
  C 194.74 216.90 197.77 217.06 201.55 215.40
  C 226.95 204.22 252.40 192.97 277.29 180.71
  Q 287.48 175.70 295.35 172.10
  Q 424.85 112.95 554.40 53.91
  Q 562.56 50.20 572.51 45.42
  C 597.90 33.25 619.17 24.90 642.21 13.96
  C 644.51 12.87 651.05 9.89 653.32 10.99
  Q 653.79 11.22 653.65 11.72
  C 652.18 17.05 642.63 21.71 638.53 24.49
  Q 430.09 166.19 221.66 307.90
  Q 210.05 315.79 198.33 323.57
  Z"
/>
<path fill="#fefefc" d="
  M 190.75 217.04
  Q 187.69 219.65 184.75 219.53
  C 154.11 218.35 101.83 228.36 86.91 259.92
  C 84.94 264.08 84.19 268.74 84.64 273.46
  C 86.15 289.28 98.01 301.67 111.93 308.10
  C 126.07 314.63 136.10 319.55 149.89 321.13
  Q 150.30 321.18 150.30 320.77
  L 150.23 288.29
  Q 150.23 287.79 149.87 287.43
  L 134.51 272.26
  A 0.52 0.51 -24.6 0 1 134.84 271.38
  C 157.55 269.85 176.54 270.02 203.12 270.93
  C 211.02 271.20 212.42 272.26 218.10 277.23
  C 222.26 280.87 227.79 283.42 232.29 286.55
  A 0.80 0.80 0.0 0 1 231.83 288.00
  L 168.80 288.00
  Q 168.35 288.00 168.35 288.45
  L 168.32 323.91
  Q 168.32 324.33 168.74 324.35
  Q 183.53 325.09 198.33 323.57
  C 190.05 329.95 180.25 331.20 168.80 333.29
  Q 168.24 333.39 168.24 333.96
  C 168.36 360.55 167.92 385.16 168.34 400.69
  C 168.43 403.74 172.95 403.41 174.90 403.74
  Q 175.42 403.83 175.47 404.35
  C 175.64 405.95 147.79 405.09 143.49 404.91
  C 143.01 404.89 142.57 404.73 142.50 404.24
  Q 142.42 403.64 143.03 403.61
  C 145.09 403.51 150.01 403.77 150.03 400.69
  Q 150.28 367.99 150.27 335.29
  Q 150.27 334.77 149.75 334.78
  C 138.63 334.98 124.18 334.28 112.06 332.21
  C 83.60 327.35 41.09 309.22 38.87 274.78
  C 36.62 239.80 78.23 220.37 106.08 214.37
  C 132.96 208.57 161.39 209.33 190.75 217.04
  Z"
/>
<path fill="#fefefc" d="
  M 504.15 309.47
  L 512.68 309.57
  Q 513.34 309.58 513.10 310.20
  C 511.36 314.73 508.35 314.63 504.13 314.50
  Q 503.62 314.49 503.59 314.99
  Q 503.19 321.15 503.52 327.25
  Q 503.71 330.62 507.50 330.20
  C 511.51 329.76 511.09 326.75 511.31 323.68
  Q 511.35 323.09 511.94 323.11
  Q 513.49 323.17 514.26 324.56
  C 521.58 337.97 494.64 339.75 489.56 331.50
  C 487.58 328.27 488.51 319.54 488.50 315.51
  Q 488.49 314.34 487.33 314.44
  C 485.86 314.56 480.83 315.05 480.28 313.25
  Q 480.10 312.65 480.71 312.50
  Q 494.05 309.19 502.60 298.56
  A 0.37 0.37 0.0 0 1 503.25 298.78
  L 503.58 308.90
  Q 503.59 309.46 504.15 309.47
  Z"
/>
<path fill="#fefefc" d="
  M 269.4291 322.9869
  A 24.85 13.90 0.5 0 1 244.4587 336.6695
  A 24.85 13.90 0.5 0 1 219.7309 322.5531
  A 24.85 13.90 0.5 0 1 244.7013 308.8705
  A 24.85 13.90 0.5 0 1 269.4291 322.9869
  Z
  M 253.1251 321.2601
  A 7.22 7.22 0.0 0 0 245.8800 314.0654
  L 243.2000 314.0747
  A 7.22 7.22 0.0 0 0 236.0052 321.3199
  L 236.0149 324.0799
  A 7.22 7.22 0.0 0 0 243.2600 331.2746
  L 245.9400 331.2653
  A 7.22 7.22 0.0 0 0 253.1348 324.0201
  L 253.1251 321.2601
  Z"
/>
<path fill="#fefefc" d="
  M 366.13 315.30
  C 350.63 306.09 341.52 331.30 362.19 331.09
  C 368.44 331.02 373.94 330.15 376.30 323.54
  Q 376.55 322.81 377.00 323.44
  C 381.74 330.22 373.85 334.24 368.32 335.63
  C 360.17 337.68 335.81 336.63 334.32 324.22
  C 333.49 317.21 341.46 312.31 347.32 310.55
  C 355.42 308.10 369.59 307.44 376.47 313.52
  C 379.23 315.96 377.66 319.92 373.80 320.34
  Q 370.92 320.66 367.99 320.45
  Q 367.40 320.41 367.30 319.82
  L 366.73 316.19
  Q 366.64 315.60 366.13 315.30
  Z"
/>
<path fill="#fefefc" d="
  M 397.56 324.73
  Q 398.08 329.06 402.16 330.09
  Q 414.36 333.17 425.59 327.54
  A 0.61 0.61 0.0 0 1 426.45 328.23
  C 423.59 339.23 401.33 337.05 393.59 334.91
  C 385.71 332.74 377.12 325.73 383.60 316.84
  C 389.27 309.06 403.77 307.48 411.98 309.54
  Q 420.76 311.74 425.10 320.85
  Q 425.78 322.27 425.65 323.29
  Q 425.57 323.98 424.87 323.98
  L 398.17 324.04
  Q 397.48 324.04 397.56 324.73
  Z
  M 398.01 319.54
  L 413.11 319.44
  A 0.17 0.17 0.0 0 0 413.28 319.27
  L 413.28 319.19
  A 7.30 5.75 -0.4 0 0 405.94 313.49
  L 405.10 313.49
  A 7.30 5.75 -0.4 0 0 397.84 319.29
  L 397.84 319.37
  A 0.17 0.17 0.0 0 0 398.01 319.54
  Z"
/>
<path fill="#fefefc" d="
  M 567.7386 323.0201
  A 24.84 13.90 0.6 0 1 542.7544 336.6592
  A 24.84 13.90 0.6 0 1 518.0614 322.4999
  A 24.84 13.90 0.6 0 1 543.0456 308.8608
  A 24.84 13.90 0.6 0 1 567.7386 323.0201
  Z
  M 551.4413 321.4647
  A 7.37 7.37 0.0 0 0 544.1359 314.0307
  L 541.7560 314.0099
  A 7.37 7.37 0.0 0 0 534.3219 321.3154
  L 534.2987 323.9753
  A 7.37 7.37 0.0 0 0 541.6041 331.4093
  L 543.9840 331.4301
  A 7.37 7.37 0.0 0 0 551.4181 324.1246
  L 551.4413 321.4647
  Z"
/>
<path fill="#fefefc" d="
  M 296.08 315.61
  C 299.96 309.37 306.54 308.44 313.44 309.20
  C 325.80 310.55 324.74 317.44 324.45 328.48
  Q 324.43 328.96 324.83 329.22
  L 333.50 334.84
  Q 334.25 335.32 333.36 335.32
  L 304.45 335.22
  A 0.34 0.33 24.9 0 1 304.23 334.63
  L 309.11 330.44
  Q 309.52 330.08 309.52 329.53
  C 309.47 324.26 311.62 314.78 302.67 316.00
  C 295.51 316.98 295.28 323.85 296.17 329.65
  Q 296.25 330.14 296.61 330.47
  L 301.21 334.61
  Q 301.91 335.25 300.96 335.25
  L 272.30 335.25
  Q 271.24 335.25 272.13 334.68
  L 280.59 329.18
  Q 281.01 328.91 281.01 328.41
  L 280.98 317.05
  Q 280.98 316.47 280.50 316.16
  L 271.91 310.61
  A 0.28 0.28 0.0 0 1 272.06 310.10
  L 294.32 309.53
  A 0.83 0.82 -1.8 0 1 295.17 310.32
  L 295.42 315.44
  Q 295.48 316.58 296.08 315.61
  Z"
/>
<path fill="#fefefc" d="
  M 450.66 313.30
  C 458.82 306.16 473.25 308.39 478.94 317.56
  C 488.05 332.24 459.62 343.30 450.40 331.34
  Q 449.86 330.64 449.84 331.53
  L 449.71 339.92
  Q 449.70 340.47 450.18 340.71
  L 460.33 345.95
  Q 461.12 346.37 460.23 346.39
  Q 446.70 346.83 429.51 346.72
  Q 427.50 346.71 425.91 346.40
  Q 425.14 346.25 425.82 345.84
  L 433.93 340.99
  A 1.69 1.68 74.7 0 0 434.75 339.54
  L 434.75 317.89
  A 2.69 2.68 -73.9 0 0 433.50 315.62
  L 425.82 310.72
  Q 425.01 310.20 425.97 310.17
  L 449.07 309.49
  Q 449.67 309.48 449.73 310.07
  L 450.07 313.07
  Q 450.15 313.75 450.66 313.30
  Z
  M 457.9909 330.7968
  A 8.27 7.08 88.4 0 0 464.8372 322.3323
  A 8.27 7.08 88.4 0 0 457.5291 314.2632
  A 8.27 7.08 88.4 0 0 450.6828 322.7277
  A 8.27 7.08 88.4 0 0 457.9909 330.7968
  Z"
/>
<path fill="#000000" d="
  M 398.01 319.54
  A 0.17 0.17 0.0 0 1 397.84 319.37
  L 397.84 319.29
  A 7.30 5.75 -0.4 0 1 405.10 313.49
  L 405.94 313.49
  A 7.30 5.75 -0.4 0 1 413.28 319.19
  L 413.28 319.27
  A 0.17 0.17 0.0 0 1 413.11 319.44
  L 398.01 319.54
  Z"
/>
<rect fill="#000000" x="-8.56" y="-8.60" transform="translate(244.57,322.67) rotate(-0.2)" width="17.12" height="17.20" rx="7.22"/>
<rect fill="#000000" x="-8.56" y="-8.70" transform="translate(542.87,322.72) rotate(0.5)" width="17.12" height="17.40" rx="7.37"/>
<ellipse fill="#000000" cx="0.00" cy="0.00" transform="translate(457.76,322.53) rotate(88.4)" rx="8.27" ry="7.08"/>
<ellipse fill="#fefefc" cx="0.00" cy="0.00" transform="translate(235.69,372.24) rotate(-0.3)" rx="7.72" ry="4.97"/>
<path fill="#fefefc" d="
  M 369.90 379.32
  L 378.26 378.95
  Q 378.91 378.92 378.71 379.54
  Q 376.84 385.50 370.30 383.99
  Q 368.91 383.67 368.94 385.10
  L 369.15 397.84
  Q 369.16 398.37 369.51 398.77
  C 373.05 402.79 377.96 398.25 376.48 393.19
  Q 376.25 392.41 377.04 392.59
  Q 381.05 393.48 380.81 398.07
  C 380.31 407.77 367.13 406.57 360.76 404.99
  C 351.64 402.72 354.39 392.89 354.18 384.78
  Q 354.17 384.30 353.69 384.27
  L 346.78 383.92
  Q 346.23 383.89 346.07 383.36
  Q 345.72 382.13 347.04 381.80
  Q 360.00 378.55 368.14 368.19
  A 0.44 0.44 0.0 0 1 368.93 368.45
  L 369.18 378.65
  Q 369.20 379.35 369.90 379.32
  Z"
/>
<path fill="#fefefc" d="
  M 269.43 394.32
  C 272.70 404.27 290.39 401.25 297.75 397.09
  Q 298.13 396.87 298.19 397.31
  C 298.88 402.43 291.85 404.77 287.75 405.49
  C 279.06 407.02 263.54 406.80 257.01 399.91
  Q 251.48 394.07 254.90 387.93
  C 259.89 378.96 274.15 377.18 283.25 379.03
  Q 294.34 381.28 297.95 392.47
  Q 298.28 393.48 297.21 393.49
  L 269.78 393.83
  A 0.38 0.37 -9.7 0 0 269.43 394.32
  Z
  M 269.99 389.05
  L 285.11 388.95
  A 0.14 0.14 0.0 0 0 285.25 388.81
  L 285.25 388.74
  A 7.55 5.71 -0.4 0 0 277.66 383.08
  L 277.36 383.08
  A 7.55 5.71 -0.4 0 0 269.85 388.84
  L 269.85 388.91
  A 0.14 0.14 0.0 0 0 269.99 389.05
  Z"
/>
<path fill="#fefefc" d="
  M 334.98 399.28
  Q 333.52 398.17 331.19 398.27
  C 323.79 398.57 305.51 397.94 302.63 389.68
  Q 301.44 386.27 303.58 383.32
  C 308.97 375.90 327.35 378.68 334.65 381.03
  Q 335.19 381.20 335.73 381.04
  L 341.50 379.31
  Q 342.24 379.09 342.24 379.86
  L 342.25 387.94
  Q 342.25 388.57 341.69 388.30
  Q 329.26 382.40 315.58 383.63
  Q 314.22 383.75 313.35 384.67
  Q 311.43 386.70 314.22 386.73
  C 322.58 386.79 332.99 386.45 340.44 390.30
  C 345.55 392.94 347.72 399.24 342.79 403.15
  C 336.23 408.35 318.73 405.63 311.27 403.23
  Q 310.79 403.07 310.32 403.26
  L 304.06 405.82
  Q 303.25 406.15 303.25 405.28
  L 303.25 395.26
  A 0.47 0.47 0.0 0 1 303.95 394.85
  C 311.50 398.98 326.27 404.31 334.79 400.75
  A 0.86 0.86 0.0 0 0 334.98 399.28
  Z"
/>
<path fill="#fefefc" d="
  M 412.44 401.31
  C 406.36 406.85 397.79 406.62 389.96 405.34
  C 386.04 404.70 382.65 401.83 384.29 397.60
  C 386.95 390.77 404.55 390.21 411.12 389.11
  Q 412.36 388.91 412.25 387.65
  C 411.73 381.94 402.83 383.50 399.29 385.03
  Q 398.75 385.26 398.75 385.84
  L 398.75 388.01
  A 1.56 1.55 87.2 0 1 397.35 389.56
  C 394.69 389.82 387.09 390.47 385.41 388.36
  C 383.49 385.94 386.69 382.79 388.79 381.82
  C 397.64 377.74 408.59 378.08 418.73 379.56
  C 430.08 381.21 426.73 391.66 427.17 399.46
  Q 427.20 399.93 427.56 400.21
  Q 429.03 401.35 430.53 400.36
  Q 431.00 400.05 431.00 399.49
  L 431.00 396.69
  Q 431.00 395.94 431.75 395.98
  C 435.07 396.18 435.01 400.47 433.87 402.50
  C 431.33 407.02 421.06 406.38 417.22 405.03
  Q 414.91 404.23 413.24 401.43
  Q 412.91 400.88 412.44 401.31
  Z
  M 410.54 393.20
  L 399.51 395.54
  A 1.13 1.13 0.0 0 0 398.64 396.88
  L 398.78 397.55
  A 5.56 4.51 -12.0 0 0 405.15 400.80
  L 407.52 400.30
  A 5.56 4.51 -12.0 0 0 412.02 394.73
  L 411.88 394.07
  A 1.13 1.13 0.0 0 0 410.54 393.20
  Z"
/>
<path fill="#fefefc" d="
  M 243.73 398.64
  L 252.69 404.30
  A 0.30 0.30 0.0 0 1 252.53 404.85
  L 219.58 405.01
  A 0.30 0.30 0.0 0 1 219.42 404.46
  L 228.61 398.58
  A 0.30 0.30 0.0 0 0 228.75 398.33
  L 228.75 386.43
  A 0.30 0.30 0.0 0 0 228.61 386.18
  L 219.69 380.38
  A 0.30 0.30 0.0 0 1 219.85 379.83
  L 243.15 378.99
  A 0.30 0.30 0.0 0 1 243.46 379.29
  L 243.59 398.39
  A 0.30 0.30 0.0 0 0 243.73 398.64
  Z"
/>
<path fill="#000000" d="
  M 269.99 389.05
  A 0.14 0.14 0.0 0 1 269.85 388.91
  L 269.85 388.84
  A 7.55 5.71 -0.4 0 1 277.36 383.08
  L 277.66 383.08
  A 7.55 5.71 -0.4 0 1 285.25 388.74
  L 285.25 388.81
  A 0.14 0.14 0.0 0 1 285.11 388.95
  L 269.99 389.05
  Z"
/>
<path fill="#000000" d="
  M 410.54 393.20
  A 1.13 1.13 0.0 0 1 411.88 394.07
  L 412.02 394.73
  A 5.56 4.51 -12.0 0 1 407.52 400.30
  L 405.15 400.80
  A 5.56 4.51 -12.0 0 1 398.78 397.55
  L 398.64 396.88
  A 1.13 1.13 0.0 0 1 399.51 395.54
  L 410.54 393.20
  Z"
/>
</svg>
