<?xml version="1.0" standalone="yes"?>
<svg xmlns="http://www.w3.org/2000/svg" width="118" height="133">
<path style="fill:#ffffff; stroke:none;" d="M0 0L0 133L118 133L118 0L0 0z"/>
<path style="fill:#9c9c9c; stroke:none;" d="M80 14C57.0687 36.9313 27.6561 59.5155 9 86L61 35L80 14z"/>
<path style="fill:#656565; stroke:none;" d="M81 14L82 15L81 14z"/>
<path style="fill:#030303; stroke:none;" d="M10 87L11 88C20.4057 85.0319 33.9681 98.5943 31 108L32 109L51.0802 92.0802L86.2461 56.9198L104 37L103 36C93.5942 38.9681 80.0319 25.4058 83 16L82 15L64 31L30 65L10 87z"/>
<path style="fill:#313131; stroke:none;" d="M82 15L83 16L82 15M83 16L84 17L83 16z"/>
<path style="fill:#656565; stroke:none;" d="M83 17L84 18L83 17M82 18L83 19L82 18M81 19L82 20L81 19M80 20L81 21L80 20z"/>
<path style="fill:#313131; stroke:none;" d="M80 21L81 22L80 21M81 22L82 23L81 22M82 23L83 24L82 23z"/>
<path style="fill:#656565; stroke:none;" d="M76 24L63 38L76 24z"/>
<path style="fill:#9c9c9c; stroke:none;" d="M77 24L82 29L77 24z"/>
<path style="fill:#313131; stroke:none;" d="M83 24L84 25L83 24z"/>
<path style="fill:#ffffff; stroke:none;" d="M63 39L91 39C81.8566 23.5989 72.706 25.2212 63 39z"/>
<path style="fill:#313131; stroke:none;" d="M84 25L85 26L84 25M85 26L86 27L85 26M86 27L87 28L86 27M87 28L88 29L87 28M88 29L89 30L88 29z"/>
<path style="fill:#9c9c9c; stroke:none;" d="M83 30L84 31L83 30z"/>
<path style="fill:#313131; stroke:none;" d="M89 30L90 31L89 30z"/>
<path style="fill:#9c9c9c; stroke:none;" d="M84 31L85 32L84 31z"/>
<path style="fill:#313131; stroke:none;" d="M90 31L91 32L90 31z"/>
<path style="fill:#9c9c9c; stroke:none;" d="M85 32L86 33L85 32z"/>
<path style="fill:#313131; stroke:none;" d="M91 32L92 33L91 32z"/>
<path style="fill:#9c9c9c; stroke:none;" d="M86 33L87 34L86 33z"/>
<path style="fill:#313131; stroke:none;" d="M92 33L93 34L92 33z"/>
<path style="fill:#9c9c9c; stroke:none;" d="M87 34L88 35L87 34z"/>
<path style="fill:#313131; stroke:none;" d="M93 34L94 35L93 34z"/>
<path style="fill:#9c9c9c; stroke:none;" d="M88 35L89 36L88 35z"/>
<path style="fill:#313131; stroke:none;" d="M94 35L95 36L94 35z"/>
<path style="fill:#9c9c9c; stroke:none;" d="M101 35L102 36L101 35z"/>
<path style="fill:#656565; stroke:none;" d="M102 35L103 36L102 35z"/>
<path style="fill:#313131; stroke:none;" d="M95 36L96 37L95 36z"/>
<path style="fill:#9c9c9c; stroke:none;" d="M100 36L101 37L100 36z"/>
<path style="fill:#313131; stroke:none;" d="M103 36L104 37L103 36z"/>
<path style="fill:#9c9c9c; stroke:none;" d="M90 37L91 38L90 37z"/>
<path style="fill:#313131; stroke:none;" d="M96 37L97 38L96 37z"/>
<path style="fill:#9c9c9c; stroke:none;" d="M99 37L100 38L99 37z"/>
<path style="fill:#313131; stroke:none;" d="M104.333 37.6667L104.667 38.3333L104.333 37.6667z"/>
<path style="fill:#9c9c9c; stroke:none;" d="M62 38L63 39L62 38M91 38L92 39L91 38z"/>
<path style="fill:#313131; stroke:none;" d="M97 38L98 39L97 38z"/>
<path style="fill:#656565; stroke:none;" d="M98 38L99 39L98 38z"/>
<path style="fill:#313131; stroke:none;" d="M62 39L62 40L93 40L62 39M103 39L104 40L103 39M102 40L103 41L102 40M100 42L101 43L100 42z"/>
<path style="fill:#656565; stroke:none;" d="M62 43L62 44L93 44L62 43z"/>
<path style="fill:#313131; stroke:none;" d="M93 43L94 44L93 43M99 43L100 44L99 43z"/>
<path style="fill:#ffffff; stroke:none;" d="M63 44L63 45L78 59L92 44L63 44z"/>
<path style="fill:#9c9c9c; stroke:none;" d="M92 44L93 45L92 44z"/>
<path style="fill:#313131; stroke:none;" d="M98 44L99 45L98 44z"/>
<path style="fill:#9c9c9c; stroke:none;" d="M64 45L65 46L64 45M91 45L92 46L91 45z"/>
<path style="fill:#313131; stroke:none;" d="M97 45L98 46L97 45M54 46L55 47L54 46z"/>
<path style="fill:#9c9c9c; stroke:none;" d="M90 46L91 47L90 46z"/>
<path style="fill:#656565; stroke:none;" d="M53 47L51 50L53 47z"/>
<path style="fill:#9c9c9c; stroke:none;" d="M54 47L54 75L40 62L55 76L54 47z"/>
<path style="fill:#656565; stroke:none;" d="M59 47L60 48L59 47z"/>
<path style="fill:#313131; stroke:none;" d="M60 47L75 62L60 47z"/>
<path style="fill:#9c9c9c; stroke:none;" d="M66 47L67 48L66 47M89 47L90 48L89 47z"/>
<path style="fill:#313131; stroke:none;" d="M95 47L96 48L95 47z"/>
<path style="fill:#ffffff; stroke:none;" d="M53 48L40 61L40 62L54 75L53 48z"/>
<path style="fill:#9c9c9c; stroke:none;" d="M59 48L59 77L74 63L60 76L59 48z"/>
<path style="fill:#ffffff; stroke:none;" d="M60 48L60 76C63.8003 73.323 72.4895 67.2937 72.6944 62.1844C72.8758 57.6645 63.2581 50.5913 60 48z"/>
<path style="fill:#9c9c9c; stroke:none;" d="M88 48L89 49L88 48z"/>
<path style="fill:#313131; stroke:none;" d="M94 48L95 49L94 48z"/>
<path style="fill:#9c9c9c; stroke:none;" d="M61 49L62 50L61 49M68 49L69 50L68 49M87 49L88 50L87 49z"/>
<path style="fill:#313131; stroke:none;" d="M93 49L94 50L93 49z"/>
<path style="fill:#9c9c9c; stroke:none;" d="M50 50L51 51L50 50M69 50L70 51L69 50M86 50L87 51L86 50z"/>
<path style="fill:#313131; stroke:none;" d="M92 50L93 51L92 50z"/>
<path style="fill:#656565; stroke:none;" d="M49 51L50 52L49 51z"/>
<path style="fill:#9c9c9c; stroke:none;" d="M85 51L86 52L85 51z"/>
<path style="fill:#313131; stroke:none;" d="M91 51L92 52L91 51z"/>
<path style="fill:#656565; stroke:none;" d="M48 52L49 53L48 52z"/>
<path style="fill:#9c9c9c; stroke:none;" d="M64 52L65 53L64 52M71 52L72 53L71 52M84 52L85 53L84 52z"/>
<path style="fill:#313131; stroke:none;" d="M90 52L91 53L90 52z"/>
<path style="fill:#656565; stroke:none;" d="M47 53L48 54L47 53z"/>
<path style="fill:#9c9c9c; stroke:none;" d="M83 53L84 54L83 53z"/>
<path style="fill:#656565; stroke:none;" d="M46 54L47 55L46 54z"/>
<path style="fill:#9c9c9c; stroke:none;" d="M66 54L67 55L66 54M73 54L74 55L73 54M82 54L83 55L82 54z"/>
<path style="fill:#313131; stroke:none;" d="M88 54L89 55L88 54z"/>
<path style="fill:#9c9c9c; stroke:none;" d="M45 55L46 56L45 55M81 55L82 56L81 55z"/>
<path style="fill:#313131; stroke:none;" d="M87 55L88 56L87 55z"/>
<path style="fill:#656565; stroke:none;" d="M44 56L45 57L44 56z"/>
<path style="fill:#9c9c9c; stroke:none;" d="M80 56L81 57L80 56z"/>
<path style="fill:#313131; stroke:none;" d="M86 56L87 57L86 56z"/>
<path style="fill:#656565; stroke:none;" d="M43 57L44 58L43 57z"/>
<path style="fill:#9c9c9c; stroke:none;" d="M69 57L70 58L69 57M76 57L77 58L76 57M79 57L80 58L79 57z"/>
<path style="fill:#313131; stroke:none;" d="M85 57L86 58L85 57z"/>
<path style="fill:#656565; stroke:none;" d="M42 58L43 59L42 58z"/>
<path style="fill:#9c9c9c; stroke:none;" d="M78 58L79 59L78 58z"/>
<path style="fill:#656565; stroke:none;" d="M41 59L42 60L41 59z"/>
<path style="fill:#9c9c9c; stroke:none;" d="M71 59L72 60L71 59z"/>
<path style="fill:#313131; stroke:none;" d="M83 59L84 60L83 59z"/>
<path style="fill:#656565; stroke:none;" d="M40 60L41 61L40 60z"/>
<path style="fill:#313131; stroke:none;" d="M82 60L83 61L82 60M39 61L40 62L39 61z"/>
<path style="fill:#9c9c9c; stroke:none;" d="M73 61L74 62L73 61z"/>
<path style="fill:#313131; stroke:none;" d="M81 61L82 62L81 61z"/>
<path style="fill:#656565; stroke:none;" d="M74 62L75 63L74 62z"/>
<path style="fill:#313131; stroke:none;" d="M80 62L81 63L80 62M79 63L80 64L79 63M36 64L51 80L21 80L21 81L52 80L36 64M78 64L79 65L78 64z"/>
<path style="fill:#656565; stroke:none;" d="M35 65L34 67L35 65z"/>
<path style="fill:#ffffff; stroke:none;" d="M36 65L22 80L51 80L36 65z"/>
<path style="fill:#313131; stroke:none;" d="M76 66L77 67L76 66z"/>
<path style="fill:#9c9c9c; stroke:none;" d="M33 67L34 68L33 67z"/>
<path style="fill:#313131; stroke:none;" d="M75 67L76 68L75 67z"/>
<path style="fill:#656565; stroke:none;" d="M32 68L33 69L32 68z"/>
<path style="fill:#313131; stroke:none;" d="M74 68L75 69L74 68z"/>
<path style="fill:#656565; stroke:none;" d="M31 69L32 70L31 69z"/>
<path style="fill:#313131; stroke:none;" d="M73 69L74 70L73 69z"/>
<path style="fill:#656565; stroke:none;" d="M30 70L31 71L30 70M29 71L30 72L29 71z"/>
<path style="fill:#313131; stroke:none;" d="M71 71L72 72L71 71z"/>
<path style="fill:#656565; stroke:none;" d="M28 72L29 73L28 72z"/>
<path style="fill:#313131; stroke:none;" d="M70 72L71 73L70 72z"/>
<path style="fill:#656565; stroke:none;" d="M27 73L28 74L27 73z"/>
<path style="fill:#313131; stroke:none;" d="M69 73L70 74L69 73z"/>
<path style="fill:#656565; stroke:none;" d="M26 74L27 75L26 74z"/>
<path style="fill:#313131; stroke:none;" d="M68 74L69 75L68 74z"/>
<path style="fill:#656565; stroke:none;" d="M25 75L26 76L25 75z"/>
<path style="fill:#313131; stroke:none;" d="M67 75L68 76L67 75z"/>
<path style="fill:#656565; stroke:none;" d="M24 76L25 77L24 76M54 76L55 77L54 76z"/>
<path style="fill:#313131; stroke:none;" d="M66 76L67 77L66 76z"/>
<path style="fill:#656565; stroke:none;" d="M23 77L24 78L23 77z"/>
<path style="fill:#313131; stroke:none;" d="M59 77L60 78L59 77z"/>
<path style="fill:#656565; stroke:none;" d="M22 78L23 79L22 78z"/>
<path style="fill:#313131; stroke:none;" d="M64 78L65 79L64 78z"/>
<path style="fill:#656565; stroke:none;" d="M21 79L22 80L21 79z"/>
<path style="fill:#313131; stroke:none;" d="M63 79L64 80L63 79M62 80L63 81L62 80M61 81L62 82L61 81M59 83L60 84L59 83z"/>
<path style="fill:#656565; stroke:none;" d="M21 84L22 85L21 84z"/>
<path style="fill:#9c9c9c; stroke:none;" d="M22 84L23 87L24 87L51 85L37 100L52 84L22 84z"/>
<path style="fill:#313131; stroke:none;" d="M52 84L53 85L52 84M58 84L59 85L58 84z"/>
<path style="fill:#656565; stroke:none;" d="M15 85L16 86L15 85z"/>
<path style="fill:#313131; stroke:none;" d="M16 85L17 86L16 85z"/>
<path style="fill:#ffffff; stroke:none;" d="M23 85L36 100L51 85L23 85z"/>
<path style="fill:#313131; stroke:none;" d="M57 85L58 86L57 85M9 86L10 87L9 86z"/>
<path style="fill:#656565; stroke:none;" d="M14 86L15 87L14 86z"/>
<path style="fill:#313131; stroke:none;" d="M17 86L18 87L17 86M56 86L57 87L56 86M10 87L11 88L10 87z"/>
<path style="fill:#656565; stroke:none;" d="M13 87L14 88L13 87z"/>
<path style="fill:#313131; stroke:none;" d="M18 87L19 88L18 87M55 87L56 88L55 87M11 88L12 89L11 88z"/>
<path style="fill:#656565; stroke:none;" d="M12 88L13 89L12 88z"/>
<path style="fill:#313131; stroke:none;" d="M19 88L20 89L19 88z"/>
<path style="fill:#9c9c9c; stroke:none;" d="M25 88L26 89L25 88z"/>
<path style="fill:#313131; stroke:none;" d="M54 88L55 89L54 88M20 89L21 90L20 89z"/>
<path style="fill:#9c9c9c; stroke:none;" d="M26 89L27 90L26 89z"/>
<path style="fill:#313131; stroke:none;" d="M21 90L22 91L21 90z"/>
<path style="fill:#9c9c9c; stroke:none;" d="M27 90L28 91L27 90z"/>
<path style="fill:#313131; stroke:none;" d="M52 90L53 91L52 90M22 91L23 92L22 91z"/>
<path style="fill:#9c9c9c; stroke:none;" d="M28 91L29 92L28 91z"/>
<path style="fill:#313131; stroke:none;" d="M51 91L52 92L51 91M23 92L24 93L23 92z"/>
<path style="fill:#9c9c9c; stroke:none;" d="M29 92L30 93L29 92z"/>
<path style="fill:#313131; stroke:none;" d="M50 92L51 93L50 92M24 93L25 94L24 93z"/>
<path style="fill:#9c9c9c; stroke:none;" d="M30 93L31 94L30 93z"/>
<path style="fill:#313131; stroke:none;" d="M49 93L50 94L49 93M25 94L26 95L25 94M26 95L27 96L26 95z"/>
<path style="fill:#9c9c9c; stroke:none;" d="M32 95L33 96L32 95z"/>
<path style="fill:#313131; stroke:none;" d="M47 95L48 96L47 95M27 96L28 97L27 96z"/>
<path style="fill:#9c9c9c; stroke:none;" d="M33 96L34 97L33 96z"/>
<path style="fill:#313131; stroke:none;" d="M46 96L47 97L46 96M28 97L29 98L28 97z"/>
<path style="fill:#9c9c9c; stroke:none;" d="M34 97L35 98L34 97z"/>
<path style="fill:#313131; stroke:none;" d="M45 97L46 98L45 97M29 98L30 99L29 98z"/>
<path style="fill:#9c9c9c; stroke:none;" d="M35 98L36 99L35 98z"/>
<path style="fill:#313131; stroke:none;" d="M44 98L45 99L44 98M30 99L31 100L30 99M43 99L44 100L43 99M31 100L32 101L31 100M42 100L43 101L42 100M32 101L33 102L32 101M33 102L34 103L33 102M40 102L41 103L40 102z"/>
<path style="fill:#656565; stroke:none;" d="M33 103L34 104L33 103z"/>
<path style="fill:#313131; stroke:none;" d="M39 103L40 104L39 103z"/>
<path style="fill:#9c9c9c; stroke:none;" d="M32 104L33 105L32 104z"/>
<path style="fill:#313131; stroke:none;" d="M38 104L39 105L38 104z"/>
<path style="fill:#9c9c9c; stroke:none;" d="M31 105L32 106L31 105z"/>
<path style="fill:#313131; stroke:none;" d="M37 105L38 106L37 105z"/>
<path style="fill:#9c9c9c; stroke:none;" d="M30 106L31 107L30 106z"/>
<path style="fill:#656565; stroke:none;" d="M30 107L31 108L30 107z"/>
<path style="fill:#313131; stroke:none;" d="M35 107L36 108L35 107M31 108L32 109L31 108M34 108L35 109L34 108M32.6667 109.333L33.3333 109.667L32.6667 109.333z"/>
</svg>
