<?xml version="1.0" ?><svg data-name="Layer 1" id="Layer_1" viewBox="0 0 512 512" xmlns="http://www.w3.org/2000/svg"><title/><circle cx="256" cy="256" fill="#fefefe" r="206.43"/><path d="M151.33,361.12l20.7-54a103,103,0,1,1,34.3,33Zm59.27-36.43,1.87,1.16a86.44,86.44,0,1,0-26.25-25.23l1.28,1.91-13.9,36.23Z" fill="#2e2e2e"/><path d="M306.76,275.55c-9.52-5-19.63-9.5-19.73-9.54-3.48-1.6-5.92.19-6.68,1.29l-7.92,9.85c-2.13,1.87-5.11,0-5.44-.2a65.2,65.2,0,0,1-31.53-27.61c-1.62-2.11-.2-3.48.11-3.74l0,0a38.67,38.67,0,0,0,6.42-7.87c2-3.07.21-6.88.15-7L233.67,211c-2-3.83-6.61-3.17-6.64-3.15h-3.37a7.4,7.4,0,0,0-6.15,1.85h0a28.5,28.5,0,0,0-8.87,11.74,35.93,35.93,0,0,0,4.59,31.5c14.6,23.63,28.65,33.09,29.2,33.45,19.73,14.4,39.47,16.41,40.26,16.49a25.58,25.58,0,0,0,3.32.22,26.26,26.26,0,0,0,18.46-8c4.58-3.95,5.29-12.85,5.32-13.31C309.8,276.86,306.8,275.56,306.76,275.55Z" fill="#2e2e2e"/></svg>